<?xml version="1.0" encoding="utf-8"?>
<!-- Generator: Adobe Illustrator 21.0.2, SVG Export Plug-In . SVG Version: 6.00 Build 0)  -->
<svg version="1.1" id="Layer_1" xmlns="http://www.w3.org/2000/svg" xmlns:xlink="http://www.w3.org/1999/xlink" x="0px" y="0px"
	 viewBox="0 0 45 19.1" style="enable-background:new 0 0 45 19.1;" xml:space="preserve">
<style type="text/css">
	.st0{enable-background:new    ;}
	.st1{fill:#58595B;}
</style>
<g class="st0">
	<path class="st1" d="M11.1,9.9c0.1-0.1,0.3-0.1,0.4-0.1c0.1,0,0.2,0,0.3,0.1c0,0.1,0,0.1,0,0.2s0,0.1,0,0.2c0,0.1-0.1,0.1-0.1,0.2
		c-0.1,0.1-0.1,0.1-0.2,0.2c0,0-0.1,0-0.1,0c0,0-0.1,0-0.1,0c0,0,0,0-0.1,0l0,0c-0.1,0-0.1,0.1-0.2,0.1s-0.2,0.1-0.3,0.1
		c-0.1,0-0.2,0.1-0.3,0.1c-0.1,0-0.2,0.1-0.4,0.1c0,0-0.1,0-0.1,0c0,0-0.1,0-0.2,0c-0.1,0-0.3,0-0.4,0c-0.1,0-0.3-0.1-0.4-0.1l0,0
		c-0.2-0.1-0.4-0.2-0.6-0.4C8.2,10.4,8,10.2,7.8,10c0,0.1,0,0.1-0.1,0.2c0,0.1,0,0.1-0.1,0.2c-0.1,0.2-0.2,0.4-0.3,0.6
		c-0.1,0.2-0.2,0.4-0.3,0.6C7,11.6,6.8,11.8,6.7,12c-0.2,0.2-0.3,0.4-0.5,0.6c-0.2,0.2-0.4,0.3-0.7,0.5S5,13.4,4.7,13.5
		c-0.1,0-0.3,0.1-0.5,0.1c-0.2,0-0.3,0.1-0.5,0.1c0,0-0.1,0-0.1,0c0,0-0.1,0-0.1,0c-0.1,0-0.3,0-0.4,0c-0.1,0-0.3,0-0.4-0.1
		c-0.2-0.1-0.4-0.2-0.6-0.3c-0.2-0.1-0.3-0.2-0.5-0.3c-0.1-0.1-0.2-0.2-0.3-0.3S1.1,12.4,1,12.3c-0.1-0.2-0.2-0.5-0.3-0.7
		c-0.1-0.2-0.1-0.5-0.1-0.7c0-0.1,0-0.1,0-0.2s0-0.1,0-0.2c0-0.2,0-0.4,0.1-0.7c0-0.3,0.1-0.5,0.2-0.8c0-0.2,0.1-0.4,0.2-0.6
		C1,8.3,1.1,8.1,1.2,7.9c0.1-0.2,0.2-0.5,0.4-0.8c0.1-0.3,0.3-0.5,0.5-0.8C2.3,6,2.5,5.8,2.8,5.6C3,5.3,3.2,5.1,3.5,4.9
		C3.7,4.8,4,4.6,4.2,4.5C4.5,4.4,4.7,4.3,5,4.2c0.1,0,0.2,0,0.2,0c0.1,0,0.2,0,0.3,0c0,0,0.1,0,0.1,0c0,0,0.1,0,0.1,0
		c0.1,0,0.2,0,0.4,0c0.1,0,0.2,0.1,0.3,0.1c0.2,0.1,0.4,0.2,0.5,0.3C7.1,4.8,7.2,4.9,7.3,5l0,0c0.1,0.1,0.2,0.2,0.3,0.4
		c0.1,0.1,0.1,0.2,0.2,0.4c0,0.1,0.1,0.2,0.1,0.3c0,0.1,0,0.2,0.1,0.2c0,0,0,0,0,0c0,0,0,0,0,0v0C8,6.4,8,6.5,8,6.6
		c0,0.1,0,0.2,0,0.2C8,6.9,8,7,8,7.1c0,0.1-0.1,0.2-0.1,0.2c0,0.1-0.1,0.1-0.1,0.1c-0.1,0-0.1,0-0.2,0c-0.1,0-0.2-0.1-0.3-0.2
		C7.2,7.2,7.2,7,7.2,6.9c0,0,0,0,0,0c0,0,0,0,0,0v0c0,0,0,0,0,0c0,0,0,0,0,0c0,0,0,0,0-0.1c0,0,0-0.1,0-0.1c0,0,0,0,0,0c0,0,0,0,0,0
		v0c0-0.1,0-0.2-0.1-0.3S7,5.9,6.9,5.8v0c0-0.1-0.1-0.2-0.2-0.3C6.7,5.4,6.6,5.3,6.5,5.2C6.4,5.1,6.2,5.1,6.1,5
		C5.9,4.9,5.7,4.9,5.5,4.9c-0.2,0-0.4,0-0.7,0.1C4.6,5,4.4,5.2,4.1,5.3C3.9,5.5,3.6,5.6,3.4,5.9S2.8,6.4,2.6,6.7
		C2.5,6.8,2.4,7,2.3,7.1C2.2,7.3,2.1,7.4,2.1,7.6C2,7.7,1.9,7.9,1.8,8C1.8,8.1,1.7,8.3,1.7,8.4h0C1.6,8.6,1.5,8.8,1.4,9.1
		C1.4,9.3,1.3,9.5,1.3,9.7v0c-0.1,0.3-0.1,0.5-0.1,0.8c0,0.2,0,0.4,0,0.5c0,0.2,0.1,0.3,0.1,0.4v0c0.1,0.2,0.2,0.4,0.3,0.6
		c0.1,0.2,0.3,0.3,0.5,0.5h0c0.1,0.1,0.2,0.1,0.3,0.2s0.3,0.1,0.4,0.2c0.1,0,0.2,0.1,0.3,0.1c0.1,0,0.2,0,0.4,0c0.1,0,0.1,0,0.2,0
		c0.1,0,0.1,0,0.2,0c0.3,0,0.6-0.1,0.8-0.2c0.2-0.1,0.4-0.2,0.6-0.3v0c0.2-0.1,0.3-0.2,0.5-0.4c0.1-0.1,0.3-0.2,0.4-0.4
		c0.1-0.1,0.2-0.2,0.3-0.4c0.1-0.1,0.2-0.3,0.3-0.4c0.1-0.1,0.1-0.2,0.2-0.4C7,10.3,7.1,10.2,7.1,10c0.1-0.2,0.1-0.3,0.2-0.4
		c0-0.1,0.1-0.2,0.1-0.3l0-0.1c0,0,0,0,0,0l0-0.3l0.4-0.2c0,0,0,0,0,0.1c0,0,0.1,0.1,0.1,0.1S8,9,8,9.1s0,0.1,0.1,0.1
		c0.1,0.1,0.1,0.2,0.2,0.3c0.1,0.2,0.2,0.3,0.4,0.5C8.7,10,8.9,10.1,9,10.2c0.1,0.1,0.2,0.1,0.3,0.1s0.2,0,0.3,0c0.1,0,0.2,0,0.3,0
		s0.2,0,0.2,0l0,0c0.1,0,0.2-0.1,0.3-0.1c0.1,0,0.2-0.1,0.2-0.1v0c0,0,0,0,0.1,0c0,0,0.1,0,0.1,0c0,0,0.1,0,0.1-0.1
		S11.1,9.9,11.1,9.9z"/>
	<path class="st1" d="M20.6,9.8c0.1-0.1,0.2-0.1,0.3-0.1c0.1,0,0.2,0.1,0.3,0.2c0.1,0.1,0.1,0.1,0.1,0.2c0,0.1,0,0.1,0,0.2
		s-0.1,0.1-0.1,0.2c0,0,0,0-0.1,0c0,0,0,0,0,0c0,0,0,0,0,0l-0.1,0c0,0-0.1,0.1-0.2,0.1s-0.2,0.1-0.4,0.2v0l-0.1,0c0,0,0,0,0,0
		c0,0,0,0,0,0c0,0,0,0,0,0c0,0,0,0,0,0c-0.1,0.1-0.3,0.2-0.6,0.4c-0.2,0.1-0.5,0.3-0.8,0.5h0c-0.2,0.1-0.4,0.2-0.6,0.3
		c-0.2,0.1-0.5,0.2-0.8,0.4c-0.3,0.1-0.6,0.2-0.9,0.3c-0.3,0.1-0.7,0.2-1.1,0.3c-0.4,0.1-0.8,0.2-1.1,0.2c-0.4,0-0.7,0.1-1.1,0.1
		c-0.4,0-0.7,0-1-0.1c-0.3,0-0.6-0.1-0.9-0.2l0,0c-0.2-0.1-0.3-0.1-0.4-0.2c-0.1-0.1-0.2-0.2-0.3-0.3s-0.2-0.3-0.2-0.4v0
		c0-0.1,0-0.1,0-0.2s0-0.1,0-0.2c0-0.2,0-0.4,0.1-0.6c0.1-0.2,0.1-0.4,0.2-0.5c0.1-0.1,0.2-0.3,0.3-0.4c0.1-0.1,0.2-0.2,0.3-0.3
		c0.1-0.1,0.2-0.1,0.2-0.2c0.1-0.1,0.2-0.1,0.3-0.2c0.1-0.1,0.2-0.1,0.3-0.1c0.1,0,0.1-0.1,0.2-0.1c0,0,0,0,0.1,0c0.1,0,0.1,0,0.2,0
		c0.1,0,0.1,0,0.2,0.1c0.1,0,0.1,0.1,0.1,0.1c0,0,0.1,0.1,0.1,0.2c0,0.1,0,0.2-0.1,0.3c-0.1,0.1-0.1,0.2-0.3,0.2l0,0c0,0,0,0,0,0
		s0,0,0,0c0,0,0,0,0,0c0,0,0,0-0.1,0c0,0,0,0,0,0c0,0,0,0-0.1,0c0,0-0.1,0-0.1,0c0,0-0.1,0-0.1,0.1h0c-0.1,0-0.1,0.1-0.2,0.1
		c-0.1,0.1-0.1,0.1-0.2,0.2c-0.1,0.1-0.2,0.2-0.2,0.3c-0.1,0.1-0.1,0.3-0.2,0.4c0,0.2-0.1,0.4-0.1,0.6c0,0.1,0,0.1,0,0.2
		c0,0.1,0.1,0.1,0.2,0.2c0.1,0.1,0.2,0.1,0.3,0.2s0.2,0.1,0.4,0.1c0.1,0,0.3,0.1,0.5,0.1c0.2,0,0.3,0,0.5,0.1c0.1,0,0.1,0,0.2,0
		c0.1,0,0.1,0,0.2,0c0.3,0,0.6,0,1-0.1c0.3,0,0.7-0.1,1.1-0.2c0.3-0.1,0.7-0.2,1-0.3s0.6-0.2,0.9-0.3c0.2-0.1,0.5-0.2,0.7-0.3
		s0.4-0.2,0.6-0.3l0,0c0.3-0.2,0.6-0.4,0.9-0.5c0.2-0.2,0.4-0.3,0.6-0.4c0.1-0.1,0.2-0.2,0.3-0.3c0.1-0.1,0.2-0.1,0.2-0.2
		c0,0,0,0,0,0c0,0,0,0,0,0C20.5,10,20.5,9.9,20.6,9.8C20.6,9.9,20.6,9.9,20.6,9.8z"/>
	<path class="st1" d="M35.6,9.9c0,0,0,0.1,0,0.2c0,0.1,0,0.1-0.1,0.2s-0.1,0.2-0.2,0.2c-0.1,0.1-0.2,0.2-0.2,0.2c0,0,0,0,0,0
		c0,0,0,0,0,0l0,0c0,0,0,0,0,0l0,0c0,0-0.1,0.1-0.1,0.1c-0.1,0-0.1,0.1-0.2,0.1c-0.1,0.1-0.3,0.2-0.5,0.3c-0.2,0.1-0.5,0.3-0.8,0.5
		c-0.2,0.1-0.3,0.2-0.5,0.3c-0.2,0.1-0.4,0.2-0.7,0.3c-0.2,0.1-0.5,0.2-0.8,0.4c-0.3,0.1-0.7,0.3-1,0.4c-0.2,0.1-0.4,0.1-0.6,0.2
		s-0.4,0.1-0.6,0.1c-0.2,0-0.3,0-0.5,0.1c-0.2,0-0.4,0-0.6,0c-0.1,0-0.1,0-0.2,0s-0.1,0-0.2,0c-0.3,0-0.5-0.1-0.8-0.1
		c-0.3-0.1-0.6-0.2-0.8-0.3c-0.3-0.1-0.5-0.3-0.8-0.5c-0.3-0.2-0.5-0.5-0.7-0.8c-0.2-0.3-0.3-0.5-0.4-0.8c0-0.1,0-0.1-0.1-0.2
		c0-0.1,0-0.1-0.1-0.2c-0.2,0.1-0.3,0.2-0.5,0.3c-0.2,0.1-0.3,0.2-0.5,0.3c-0.4,0.2-0.7,0.5-1,0.7s-0.6,0.4-0.9,0.6
		c-0.1,0.1-0.3,0.2-0.4,0.3c-0.1,0.1-0.2,0.2-0.3,0.3c0,0,0,0-0.1,0c0,0,0,0-0.1,0.1c0,0,0,0-0.1,0.1c0,0-0.1,0-0.1,0.1l0,0
		c0,0,0,0.1-0.1,0.1c0,0.1-0.1,0.1-0.2,0.1c0,0,0,0,0,0.1c0,0,0,0,0,0l-0.3-0.3l0-0.1l0-0.2c0,0,0,0,0,0c0,0,0,0,0,0l0-0.1
		c0-0.1,0-0.1,0.1-0.2s0-0.1,0.1-0.2v0c0.1-0.1,0.1-0.3,0.2-0.4c0.1-0.1,0.1-0.3,0.2-0.4l0,0c0-0.1,0.1-0.1,0.1-0.2
		c0-0.1,0.1-0.1,0.1-0.2h0c0-0.1,0.1-0.1,0.1-0.2s0.1-0.1,0.1-0.2c0-0.1,0.1-0.1,0.1-0.2c0,0,0-0.1,0.1-0.1c0,0,0,0,0,0c0,0,0,0,0,0
		c0,0,0,0,0,0c0,0,0,0,0-0.1c0,0-0.1,0-0.1-0.1s-0.1,0-0.1-0.1c0-0.1,0-0.1,0-0.2s0-0.1,0.1-0.2c0-0.1,0.1-0.1,0.2-0.2
		c0.1-0.1,0.1-0.1,0.2-0.2c0,0,0,0,0.1,0c0,0,0,0,0.1,0c0,0,0,0,0,0c0,0,0,0,0.1,0c0.2-0.4,0.4-0.8,0.6-1.3c0.2-0.5,0.5-1,0.8-1.7
		c0,0,0-0.1,0-0.1s0-0.1,0-0.1c0.1-0.2,0.2-0.4,0.3-0.6c0.1-0.2,0.2-0.4,0.3-0.6c0.1-0.1,0.1-0.2,0.2-0.4c0.1-0.1,0.1-0.2,0.2-0.4
		c0.2-0.4,0.3-0.7,0.5-1.1c0.2-0.3,0.3-0.6,0.4-0.9c0,0,0,0,0-0.1c0,0,0,0,0,0c0,0,0,0,0,0c0,0,0-0.1,0.1-0.1c0,0,0-0.1,0.1-0.1
		c0-0.1,0.1-0.1,0.1-0.2c0-0.1,0.1-0.1,0.1-0.2v0c0-0.1,0.1-0.1,0.1-0.2s0.1-0.1,0.1-0.2l0-0.1c0,0,0,0,0-0.1s0,0,0-0.1l0,0l0,0
		c0,0,0,0,0,0c0,0,0,0,0,0v0l0,0c0,0,0-0.1,0-0.1c0,0,0,0,0,0c0,0,0.1,0,0.1-0.1c0.1,0,0.1,0,0.2,0c0.1,0,0.2,0,0.2,0.1
		c0.1,0.1,0.1,0.1,0.1,0.1c0,0.1,0,0.1,0,0.2c0,0,0,0.1,0,0.1c0,0.1,0,0.1,0,0.2s0,0.1,0,0.2c0,0,0,0,0,0c0,0,0,0,0,0v0.1
		c0,0.1,0,0.2-0.1,0.4c0,0.1-0.1,0.3-0.1,0.5c-0.1,0.5-0.3,0.9-0.4,1.3s-0.3,0.8-0.4,1.1c-0.1,0.3-0.3,0.6-0.4,0.9
		c-0.1,0.3-0.3,0.5-0.4,0.8c-0.2,0.5-0.5,0.9-0.7,1.2c-0.2,0.3-0.4,0.6-0.6,0.8c-0.2,0.2-0.3,0.4-0.4,0.5S22.1,9.7,22,9.8l0,0
		c-0.1,0.1-0.1,0.1-0.2,0.2s-0.1,0.1-0.2,0.2c-0.1,0.3-0.2,0.5-0.3,0.7c-0.1,0.2-0.2,0.3-0.2,0.5c-0.1,0.1-0.1,0.3-0.2,0.4
		c-0.1,0.1-0.1,0.3-0.2,0.5c0.1-0.1,0.2-0.2,0.3-0.2s0.2-0.2,0.4-0.2c0.2-0.2,0.5-0.3,0.8-0.5c0.3-0.2,0.6-0.4,0.9-0.6
		c0.1,0,0.1-0.1,0.2-0.1c0.1,0,0.1-0.1,0.2-0.1l0.1,0c0,0,0,0,0,0s0,0,0,0c0,0,0.1-0.1,0.1-0.1c0,0,0.1-0.1,0.1-0.1l0,0c0,0,0,0,0,0
		c0,0,0,0,0,0c0,0,0,0,0,0c0,0,0,0,0,0c0,0,0,0,0.1,0c0,0,0,0,0.1,0l0,0.1V9.9c0,0,0,0,0.1,0c0,0,0,0,0,0c0,0,0.1,0,0.1,0
		c0,0,0.1,0,0.1,0s0.1,0,0.1,0.1c0,0,0.1,0.1,0.1,0.2l0,0l0,0l0,0c0.1,0.2,0.1,0.4,0.2,0.6c0.1,0.2,0.2,0.4,0.3,0.6
		c0.1,0.2,0.3,0.4,0.5,0.5c0.2,0.2,0.3,0.3,0.5,0.4c0.2,0.1,0.4,0.2,0.6,0.3c0.2,0.1,0.4,0.1,0.6,0.2h0c0.1,0,0.3,0,0.4,0.1
		s0.2,0,0.4,0c0.3,0,0.5,0,0.8-0.1c0.2,0,0.5-0.1,0.7-0.1c0.3-0.1,0.6-0.2,0.9-0.3c0.3-0.1,0.6-0.2,0.8-0.3c0.1,0,0.2-0.1,0.3-0.2
		s0.2-0.1,0.3-0.2c0.1-0.1,0.2-0.1,0.3-0.2c0.1-0.1,0.2-0.1,0.3-0.2c0.3-0.2,0.6-0.4,0.9-0.5c0.3-0.2,0.5-0.3,0.6-0.4c0,0,0,0,0,0
		s0,0,0,0c0.2-0.1,0.3-0.2,0.4-0.3c0.1-0.1,0.2-0.1,0.2-0.1c0.1-0.1,0.2-0.1,0.3-0.2c0.1,0,0.2-0.1,0.3-0.1c0.1,0,0.2,0,0.2,0
		S35.6,9.8,35.6,9.9z M24.5,3.7c0,0.1-0.1,0.1-0.1,0.2c0,0.1-0.1,0.1-0.1,0.2c0,0.1-0.1,0.2-0.1,0.3c0,0.1-0.1,0.2-0.1,0.3
		C24,4.9,23.9,5,23.8,5.2c-0.1,0.1-0.1,0.3-0.2,0.4c-0.1,0.1-0.1,0.3-0.2,0.4c0,0.1-0.1,0.2-0.1,0.3c0,0.1-0.1,0.1-0.1,0.2
		c0,0.1-0.1,0.1-0.1,0.2s-0.1,0.2-0.1,0.3C23,7,23,7.2,22.9,7.4c0-0.1,0.1-0.1,0.1-0.2s0.1-0.1,0.1-0.2c0.1-0.3,0.3-0.5,0.5-0.8
		s0.3-0.6,0.5-1c0.1-0.4,0.3-0.7,0.5-1.2C24.7,3.5,24.8,3,25,2.5c-0.1,0.2-0.1,0.3-0.2,0.5c-0.1,0.2-0.1,0.3-0.2,0.5l0,0
		c0,0,0,0,0,0c0,0,0,0,0,0L24.5,3.7L24.5,3.7z M25.1,1L25.1,1C25,1.1,25,1,25.1,1C25,1,25,1,25.1,1z"/>
	<path class="st1" d="M44.5,9.9c0,0.1,0,0.1,0,0.2c0,0.1,0,0.1-0.1,0.2c0,0.1-0.1,0.1-0.2,0.2c-0.1,0.1-0.1,0.1-0.2,0.1c0,0,0,0,0,0
		c0,0,0,0,0,0c0,0-0.1,0-0.1,0c0,0-0.1,0-0.2,0.1c0,0-0.1,0-0.1,0c-0.1,0-0.1,0-0.2,0.1c0,0-0.1,0-0.1,0c0,0-0.1,0-0.1,0L43,11h0
		c-0.2,0.1-0.4,0.1-0.7,0.2c-0.3,0.1-0.7,0.2-1.1,0.3c-0.5,0.1-1,0.2-1.7,0.4c-0.7,0.1-1.4,0.2-2.3,0.3c-0.1,0-0.2,0-0.3,0
		s-0.2,0-0.2,0c-0.1,0-0.2,0-0.2,0c-0.1,0-0.2,0-0.3,0c0,0,0,0,0,0c0,0,0,0,0,0c0,0.1-0.1,0.2-0.1,0.2c0,0.1-0.1,0.2-0.1,0.3
		c0.1,0.2,0.2,0.3,0.4,0.5c0.1,0.2,0.3,0.4,0.4,0.6c0,0,0,0,0,0.1c0,0,0,0,0,0.1c0,0.1,0.1,0.1,0.1,0.2c0,0.1,0.1,0.1,0.1,0.2
		c0,0,0,0,0,0c0,0.1,0,0.1,0,0.2c0,0.1,0,0.1,0,0.2c0,0.1,0,0.1,0,0.2c0,0.1-0.1,0.1-0.1,0.2c-0.1,0.1-0.2,0.1-0.2,0.1
		c-0.1,0-0.2,0-0.2,0c-0.1,0-0.2,0-0.2-0.1s-0.1-0.1-0.2-0.1c0,0-0.1,0-0.1-0.1c-0.1,0-0.1-0.1-0.2-0.1c-0.1-0.1-0.2-0.1-0.3-0.2
		c-0.1-0.1-0.2-0.2-0.2-0.2c0-0.1-0.1-0.1-0.1-0.2c0-0.1-0.1-0.1-0.1-0.2c0-0.1-0.1-0.2-0.1-0.3c0-0.1,0-0.2,0-0.2c0,0,0,0,0,0
		c0,0,0,0,0,0c0-0.1,0-0.2,0.1-0.4c0-0.1,0.1-0.2,0.1-0.3v0c0,0,0,0,0,0l0,0c0,0,0,0,0,0s0,0,0-0.1c0,0,0,0,0,0c0,0,0,0,0,0l0,0
		c0,0-0.1-0.1-0.1-0.1c0,0,0,0,0,0c0,0,0,0,0,0c0,0,0,0,0,0c0,0,0,0,0,0l0,0l-0.1-0.1c0,0,0-0.1-0.1-0.1c0,0,0,0,0-0.1l0,0
		c0,0,0,0,0,0s0,0,0,0l-0.3-0.6l1.3,0.1c0-0.1,0.1-0.2,0.1-0.3c0.1-0.1,0.1-0.2,0.1-0.3c0,0,0-0.1,0.1-0.2s0-0.1,0.1-0.2
		c0,0,0,0,0,0c0,0,0,0,0,0c0,0,0,0,0,0c0-0.1,0.1-0.2,0.1-0.2c0,0,0-0.1,0.1-0.1c0,0,0.1-0.1,0.1-0.2c0-0.1,0.1-0.2,0.2-0.3
		c-0.1,0.1-0.2,0.1-0.2,0.2c-0.1,0-0.1,0.1-0.2,0.1c0,0-0.1,0.1-0.1,0.1s-0.1,0.1-0.1,0.1c0,0,0,0-0.1,0.1c0,0,0,0-0.1,0
		c0,0,0,0,0,0c0,0,0,0,0,0c0,0,0,0,0,0c0,0,0,0,0,0c-0.1,0.1-0.2,0.1-0.3,0.2c-0.1,0-0.2,0.1-0.3,0.1c-0.1,0-0.2,0-0.3-0.1v0
		c0,0,0-0.1,0-0.2c0-0.1,0-0.1,0.1-0.2c0-0.1,0.1-0.1,0.1-0.2c0.1-0.1,0.1-0.1,0.2-0.2c0,0,0.1,0,0.1-0.1c0,0,0,0,0.1-0.1
		c0,0,0.1,0,0.1-0.1c0,0,0.1,0,0.1-0.1l0,0c0,0,0,0,0,0c0,0,0,0,0,0c0,0,0,0,0,0c0.1-0.1,0.2-0.1,0.3-0.2s0.3-0.2,0.5-0.4
		c0.1-0.1,0.3-0.3,0.5-0.4C37,8.2,37.2,8,37.4,7.8c0.2-0.3,0.4-0.7,0.6-1.1s0.5-0.9,0.8-1.4c0,0,0,0,0,0c0,0,0,0,0-0.1
		C38.9,5,39,4.9,39.1,4.7c0.1-0.2,0.2-0.3,0.3-0.5c0,0,0,0,0-0.1c0,0,0-0.1,0.1-0.1l0,0c0,0,0,0,0,0c0,0,0,0,0.1,0l0,0c0,0,0,0,0,0
		l0.1-0.1c0,0,0,0,0,0c0,0,0,0,0,0c0,0,0,0,0.1,0h0.1c0,0,0,0,0,0c0,0,0,0,0.1,0l0,0c0.1,0,0.2,0.1,0.2,0.2c0,0.1,0.1,0.1,0.1,0.2
		l0,0c0,0,0,0,0,0.1c0,0,0,0,0,0c0,0,0,0.1,0,0.1s0,0.1,0,0.1c0,0.1,0,0.2-0.1,0.3S40.2,5,40.1,5.1l0,0.1c-0.1,0.3-0.3,0.7-0.5,0.9
		c-0.2,0.3-0.3,0.5-0.5,0.8c-0.2,0.3-0.5,0.6-0.7,0.9c-0.2,0.3-0.5,0.5-0.7,0.7c-0.1,0.2-0.2,0.3-0.2,0.5s-0.1,0.3-0.2,0.4v0
		c-0.2,0.5-0.4,0.9-0.5,1.2s-0.3,0.7-0.4,1l0,0c0,0,0,0,0,0c0,0,0,0,0,0c0.1,0,0.3,0,0.4,0c0.1,0,0.3,0,0.5,0
		c0.7-0.1,1.4-0.1,1.9-0.2c0.6-0.1,1-0.2,1.4-0.3c0.4-0.1,0.7-0.2,1-0.3s0.5-0.2,0.7-0.3c0.2-0.1,0.4-0.2,0.5-0.2
		c0.1-0.1,0.2-0.1,0.4-0.2c0,0,0,0,0.1,0c0,0,0,0,0.1,0c0,0,0.1,0,0.1,0c0,0,0.1,0,0.1,0h0c0,0,0.1,0,0.1,0c0,0,0.1,0,0.1,0l0,0
		c0.2-0.1,0.3-0.1,0.5-0.1c0.1,0,0.2,0,0.2,0C44.4,9.8,44.5,9.9,44.5,9.9L44.5,9.9z M36.1,14.3c0-0.1-0.1-0.2-0.1-0.2
		c0-0.1-0.1-0.1-0.1-0.2l0,0c0,0,0,0,0-0.1c0,0,0,0,0-0.1c0,0,0-0.1,0-0.1c0,0,0,0,0-0.1c0,0,0,0,0,0.1s0,0,0,0.1c0,0,0,0,0,0.1
		c0,0,0,0,0,0c0,0,0,0.1,0.1,0.1c0,0,0.1,0.1,0.1,0.1c0.1,0.1,0.2,0.2,0.4,0.4c0,0,0,0,0,0c0,0,0,0,0,0
		C36.2,14.4,36.2,14.4,36.1,14.3C36.2,14.3,36.2,14.3,36.1,14.3L36.1,14.3z M39.8,4.8C39.8,4.8,39.8,4.8,39.8,4.8
		C39.8,4.8,39.8,4.8,39.8,4.8C39.8,4.8,39.8,4.8,39.8,4.8z"/>
</g>
<g class="st0">
	<path class="st1" d="M4.3,17c0.1,0,0.1,0.1,0.2,0.2c0,0.1,0.1,0.2,0.1,0.3c0,0.1,0,0.1,0,0.2c0,0.1-0.1,0.1-0.1,0.2
		c0,0-0.1,0.1-0.2,0.1c-0.1,0-0.1,0-0.2,0H3.4l0-0.1v-1.7H4c0.1,0,0.1,0,0.2,0c0.1,0,0.1,0.1,0.2,0.1c0,0,0.1,0.1,0.1,0.2
		c0,0.1,0,0.1,0,0.2c0,0.1,0,0.1,0,0.2C4.4,16.9,4.4,16.9,4.3,17z M4.1,16.9C4.2,16.9,4.2,16.8,4.1,16.9c0.1-0.1,0.1-0.1,0.2-0.2
		c0,0,0-0.1,0-0.1c0,0,0-0.1,0-0.1s0-0.1-0.1-0.1c0,0-0.1,0-0.1-0.1c0,0-0.1,0-0.1,0H3.6v0.6H4C4.1,16.9,4.1,16.9,4.1,16.9z
		 M4.2,17.7C4.3,17.7,4.3,17.6,4.2,17.7c0.1-0.1,0.1-0.1,0.2-0.2s0-0.1,0-0.1c0,0,0-0.1,0-0.1s0-0.1-0.1-0.1c0,0-0.1,0-0.1-0.1
		c0,0-0.1,0-0.1,0H3.6v0.6h0.6C4.2,17.7,4.2,17.7,4.2,17.7z"/>
</g>
<g class="st0">
	<path class="st1" d="M6.5,17L6.5,17L6.5,17v0.9H6.3V17l-0.7-0.9h0.2l0.5,0.7L7,16.1h0.2L6.5,17z"/>
</g>
<g class="st0">
	<path class="st1" d="M11.4,16.2c0.1,0,0.2,0.1,0.3,0.2c0.1,0.1,0.1,0.2,0.2,0.3S12,16.9,12,17s0,0.2-0.1,0.3s-0.1,0.2-0.2,0.3
		c-0.1,0.1-0.2,0.1-0.3,0.2c-0.1,0-0.2,0.1-0.3,0.1h-0.6v-1.8h0.6C11.2,16.1,11.3,16.1,11.4,16.2z M11.3,17.6c0.1,0,0.2-0.1,0.2-0.2
		c0.1-0.1,0.1-0.1,0.1-0.2c0-0.1,0.1-0.2,0.1-0.3c0-0.1,0-0.2-0.1-0.3c0-0.1-0.1-0.2-0.1-0.2c-0.1-0.1-0.1-0.1-0.2-0.1
		s-0.2-0.1-0.3-0.1h-0.4v1.4h0.4C11.2,17.7,11.3,17.7,11.3,17.6z"/>
</g>
<g class="st0">
	<path class="st1" d="M13.9,16.1l0.8,1.8h-0.2l-0.2-0.5h-0.8l-0.2,0.5H13l0.8-1.8H13.9z M14.2,17.1l-0.3-0.7l-0.3,0.7H14.2z"/>
	<path class="st1" d="M16.9,16.1c0.1,0,0.1,0.1,0.2,0.1c0,0,0.1,0.1,0.1,0.2c0,0.1,0,0.1,0,0.2c0,0.1,0,0.1,0,0.2
		c0,0.1-0.1,0.1-0.1,0.2c0,0-0.1,0.1-0.2,0.1s-0.1,0-0.2,0h-0.5v0.8H16v-1.8h0.7C16.8,16.1,16.9,16.1,16.9,16.1z M16.9,16.9
		C16.9,16.9,16.9,16.8,16.9,16.9c0.1-0.1,0.1-0.1,0.2-0.2c0,0,0-0.1,0-0.1c0,0,0-0.1,0-0.1c0,0,0-0.1-0.1-0.1c0,0-0.1,0-0.1-0.1
		c0,0-0.1,0-0.1,0h-0.5v0.6h0.5C16.8,16.9,16.8,16.9,16.9,16.9z"/>
	<path class="st1" d="M19.8,16.1H20v1.8h-0.2v-0.8h-1.1v0.8h-0.2v-1.8h0.2v0.8h1.1V16.1z"/>
	<path class="st1" d="M22.6,16.1h0.2v1.8h-0.1l-1.1-1.4v1.4h-0.2v-1.8h0.1l1.1,1.4V16.1z"/>
</g>
<g class="st0">
	<path class="st1" d="M24.1,16.1h1.2v0.2h-1v0.6H25v0.2h-0.7v0.6h1v0.2h-1.2V16.1z"/>
</g>
<g class="st0">
	<path class="st1" d="M28.1,17.2c0,0.1-0.1,0.2-0.1,0.3s-0.1,0.2-0.2,0.2s-0.2,0.1-0.3,0.1c-0.1,0-0.2,0-0.3,0c-0.1,0-0.2,0-0.3-0.1
		c-0.1,0-0.2-0.1-0.3-0.2c-0.1-0.1-0.1-0.2-0.2-0.3s-0.1-0.2-0.1-0.3c0-0.1,0-0.2,0.1-0.3s0.1-0.2,0.2-0.3c0.1-0.1,0.2-0.1,0.3-0.2
		c0.1,0,0.2-0.1,0.3-0.1c0.1,0,0.2,0,0.3,0.1c0.1,0,0.2,0.1,0.3,0.1s0.1,0.1,0.2,0.2c0.1,0.1,0.1,0.2,0.1,0.3h-0.2
		c0-0.1-0.1-0.1-0.1-0.2s-0.1-0.1-0.2-0.2c-0.1,0-0.1-0.1-0.2-0.1c-0.1,0-0.1,0-0.2,0c-0.1,0-0.2,0-0.3,0.1s-0.2,0.1-0.2,0.2
		s-0.1,0.1-0.2,0.2s-0.1,0.2-0.1,0.3c0,0.1,0,0.2,0.1,0.3s0.1,0.2,0.2,0.2c0.1,0.1,0.1,0.1,0.2,0.2s0.2,0.1,0.3,0.1
		c0.1,0,0.1,0,0.2,0c0.1,0,0.1-0.1,0.2-0.1s0.1-0.1,0.2-0.2s0.1-0.1,0.1-0.2H28.1z"/>
	<path class="st1" d="M30.7,16.1h0.2v1.8h-0.2v-0.8h-1.1v0.8h-0.2v-1.8h0.2v0.8h1.1V16.1z"/>
	<path class="st1" d="M32.2,16.1h1.2v0.2h-1v0.6h0.7v0.2h-0.7v0.6h1v0.2h-1.2V16.1z"/>
	<path class="st1" d="M35.9,16.1h0.2v1.8H36l-1.1-1.4v1.4h-0.2v-1.8h0.1l1.1,1.4V16.1z"/>
	<path class="st1" d="M38.3,17.1h0.9l0,0.1c0,0.1,0,0.2-0.1,0.3s-0.1,0.2-0.2,0.2c-0.1,0.1-0.2,0.1-0.3,0.1c-0.1,0-0.2,0.1-0.3,0.1
		c-0.1,0-0.2,0-0.3-0.1s-0.2-0.1-0.3-0.2c-0.1-0.1-0.1-0.2-0.2-0.3s-0.1-0.2-0.1-0.3c0-0.1,0-0.2,0.1-0.3s0.1-0.2,0.2-0.3
		c0.1-0.1,0.2-0.1,0.3-0.2c0.1,0,0.2-0.1,0.3-0.1c0.1,0,0.2,0,0.3,0.1c0.1,0,0.2,0.1,0.3,0.1c0.1,0.1,0.1,0.1,0.2,0.2
		c0.1,0.1,0.1,0.2,0.1,0.3H39c0-0.1-0.1-0.1-0.1-0.2c0-0.1-0.1-0.1-0.2-0.2s-0.1-0.1-0.2-0.1c-0.1,0-0.1,0-0.2,0
		c-0.1,0-0.2,0-0.3,0.1s-0.2,0.1-0.2,0.2s-0.1,0.1-0.2,0.2s-0.1,0.2-0.1,0.3c0,0.1,0,0.2,0.1,0.3s0.1,0.2,0.2,0.2s0.1,0.1,0.2,0.2
		s0.2,0.1,0.3,0.1c0.1,0,0.1,0,0.2,0s0.1-0.1,0.2-0.1c0.1,0,0.1-0.1,0.2-0.1c0-0.1,0.1-0.1,0.1-0.2h-0.7V17.1z"/>
</g>
</svg>
